# xmcd
#
# Track frame offsets:
#	150
#	16717
#	33986
#	48375
#	66571
#	83820
#	98390
#	114182
#	132151
#	150525
#	163777
#	176778
#	188710
#	205442
#	218355
#	234767
#	252176
#	272605
#	292224
#	307501
#
# Disc length: 4270 seconds
#
# Revision: 1
# Processed by: cddbd v1.5.2PL0 Copyright (c) Steve Scherf et al.
# Submitted via: audiograbber 1.83.01
#
DISCID=0110ac14
DTITLE=Various Artists - CDX 488
DYEAR=2009
DGENRE=Country
TTITLE0=Brad Paisley - American Saturday Night 
TTITLE1=Toby Keith feat. Dave Koz, Marcus Miller and Arthur  Thompson - Cryin' Fo
TTITLE1=r Me 
TTITLE2=Love and Theft - Dancing In Circles
TTITLE3=Danny Gokey - It's Only 
TTITLE4=Montgomery Gentry - Oughta Be More Songs About That 
TTITLE5=Trailor Choir - Rockin' the Beer Gut ("Holla" Day Version)
TTITLE6=Clay Walker - She Won't Be Lonely For Long
TTITLE7=Keith Urban - 'Till Summer Comes Around
TTITLE8=James Welsey - Jackson Hole
TTITLE9=Jenna Zablocki - Don't Underestimate My Heart 
TTITLE10=Monte Stephens - My Last Dollar 
TTITLE11=Vince Hatfield - Shoes and Cheese 
TTITLE12=Brent Lonker - Tuff
TTITLE13=Leona Williams - If We Make It Through December
TTITLE14=Doug Wayne - Almost Time For Christmas 
TTITLE15=José Feliciano - On This Christmas 
TTITLE16=José Feliciano - Precious Child 
TTITLE17=Big Daddy Weave - I'll Be Brave This Christmas
TTITLE18=Crystal Shawanda - I'll Be Home For Christmas
TTITLE19=4 Sisters and A Cousin - White Christmas 
EXTD=
EXTT0=
EXTT1=
EXTT2=
EXTT3=
EXTT4=
EXTT5=
EXTT6=
EXTT7=
EXTT8=
EXTT9=
EXTT10=
EXTT11=
EXTT12=
EXTT13=
EXTT14=
EXTT15=
EXTT16=
EXTT17=
EXTT18=
EXTT19=
PLAYORDER=
